<svg xmlns="http://www.w3.org/2000/svg" width="260" height="260" viewBox="0 0 260 260">
  <g fill="none" stroke-linecap="round" stroke-linejoin="round">
    <g transform="translate(12,14)" stroke="#1B2B5E" stroke-width="1.8" opacity="0.18">
      <path d="M2 8 C5 5 9 3 14 3 C19 3 23 5 26 8"/>
      <path d="M5 12 C8 9 11 7.5 14 7.5 C17 7.5 20 9 23 12"/>
      <path d="M9 16 C11 14 12.5 13 14 13 C15.5 13 17 14 19 16"/>
      <circle cx="14" cy="20" r="1.8" fill="#1B2B5E" stroke="none"/>
    </g>
    <g transform="translate(72,8)" stroke="#CA001B" stroke-width="1.8" opacity="0.16">
      <rect x="8" y="2" width="7" height="19" rx="1.5"/>
      <rect x="2" y="8" width="19" height="7" rx="1.5"/>
    </g>
    <g transform="translate(130,12)" stroke="#1B2B5E" stroke-width="1.8" opacity="0.17">
      <rect x="2" y="2" width="18" height="22" rx="2.5"/>
      <line x1="2" y1="17" x2="20" y2="17"/>
      <circle cx="11" cy="21" r="1.2" fill="#1B2B5E" stroke="none"/>
      <line x1="6" y1="8" x2="16" y2="8" stroke-width="1.2"/>
      <line x1="6" y1="11" x2="14" y2="11" stroke-width="1.2"/>
    </g>
    <g transform="translate(195,10)" stroke="#1B2B5E" stroke-width="1.8" opacity="0.16">
      <rect x="2" y="7" width="19" height="16" rx="1"/>
      <path d="M7 23 L7 15 Q7 14 8 14 L14 14 Q15 14 15 15 L15 23"/>
      <line x1="2" y1="12" x2="21" y2="12"/>
      <rect x="8" y="2" width="7" height="5" rx="1"/>
    </g>
    <g transform="translate(38,65)" stroke="#CA001B" stroke-width="1.8" opacity="0.16">
      <polyline points="1,12 6,12 9,5 12,19 15,8 18,14 21,12 26,12"/>
    </g>
    <g transform="translate(100,60)" stroke="#1B2B5E" stroke-width="1.8" opacity="0.17">
      <rect x="3" y="4" width="16" height="20" rx="2"/>
      <rect x="7" y="1" width="8" height="5" rx="1.5"/>
      <line x1="7" y1="11" x2="15" y2="11"/>
      <line x1="7" y1="15" x2="15" y2="15"/>
      <line x1="7" y1="19" x2="12" y2="19"/>
    </g>
    <g transform="translate(162,58)" stroke="#CA001B" stroke-width="2" opacity="0.16">
      <polyline points="15,2 8,13 14,13 7,24"/>
    </g>
    <g transform="translate(218,62)" stroke="#1B2B5E" stroke-width="1.8" opacity="0.17">
      <circle cx="11" cy="11" r="3.5"/>
      <path d="M11 2v2.5M11 19v2.5M2 11h2.5M19 11h2.5M4.5 4.5l1.8 1.8M16.7 16.7l1.8 1.8M17.5 4.5l-1.8 1.8M6.3 16.7l-1.8 1.8"/>
    </g>
    <g transform="translate(12,118)" stroke="#1B2B5E" stroke-width="1.8" opacity="0.17">
      <path d="M7 18 C3 18 2 13 4 11 C3 6 10 4 13 8 C15 5 20 5 21 9 C25 9 25 14 22 15"/>
      <polyline points="13,22 13,14 10,17 16,17 13,14"/>
    </g>
    <g transform="translate(76,112)" stroke="#1B2B5E" stroke-width="1.8" opacity="0.16">
      <path d="M11 2 L20 6 L20 13 C20 18 16 22 11 23 C6 22 2 18 2 13 L2 6 Z"/>
      <polyline points="6,12 10,16 17,9"/>
    </g>
    <g transform="translate(200,112)" stroke="#1B2B5E" stroke-width="1.8" opacity="0.16">
      <rect x="2" y="2" width="20" height="6" rx="1.5"/>
      <rect x="2" y="10" width="20" height="6" rx="1.5"/>
      <rect x="2" y="18" width="20" height="6" rx="1.5"/>
      <circle cx="18" cy="5" r="1.2" fill="#1B2B5E" stroke="none"/>
      <circle cx="18" cy="13" r="1.2" fill="#1B2B5E" stroke="none"/>
    </g>
    <g transform="translate(44,172)" stroke="#1B2B5E" stroke-width="1.8" opacity="0.17">
      <path d="M2 8 C5 5 9 3 14 3 C19 3 23 5 26 8"/>
      <path d="M6 12 C8.5 9.5 11 8 14 8 C17 8 19.5 9.5 22 12"/>
      <path d="M10 16 C11.5 14.5 12.8 13.8 14 13.8 C15.2 13.8 16.5 14.5 18 16"/>
      <circle cx="14" cy="20" r="1.5" fill="#1B2B5E" stroke="none"/>
    </g>
    <g transform="translate(112,168)" stroke="#CA001B" stroke-width="1.8" opacity="0.15">
      <rect x="8" y="2" width="7" height="19" rx="1.5"/>
      <rect x="2" y="8" width="19" height="7" rx="1.5"/>
    </g>
    <g transform="translate(168,172)" stroke="#CA001B" stroke-width="1.8" opacity="0.15">
      <polyline points="1,12 6,12 9,5 12,19 15,8 18,14 21,12 26,12"/>
    </g>
    <g transform="translate(218,168)" stroke="#1B2B5E" stroke-width="1.8" opacity="0.16">
      <rect x="2" y="7" width="19" height="16" rx="1"/>
      <path d="M7 23 L7 15 Q7 14 8 14 L14 14 Q15 14 15 15 L15 23"/>
      <line x1="2" y1="12" x2="21" y2="12"/>
      <rect x="8" y="2" width="7" height="5" rx="1"/>
    </g>
    <g transform="translate(8,220)" stroke="#1B2B5E" stroke-width="1.8" opacity="0.16">
      <rect x="3" y="4" width="16" height="20" rx="2"/>
      <rect x="7" y="1" width="8" height="5" rx="1.5"/>
      <line x1="7" y1="11" x2="15" y2="11"/>
      <line x1="7" y1="15" x2="15" y2="15"/>
      <line x1="7" y1="19" x2="12" y2="19"/>
    </g>
    <g transform="translate(72,222)" stroke="#1B2B5E" stroke-width="1.8" opacity="0.15">
      <path d="M11 2 L20 6 L20 13 C20 18 16 22 11 23 C6 22 2 18 2 13 L2 6 Z"/>
      <polyline points="6,12 10,16 17,9"/>
    </g>
    <g transform="translate(138,220)" stroke="#CA001B" stroke-width="2" opacity="0.15">
      <polyline points="15,2 8,13 14,13 7,24"/>
    </g>
    <g transform="translate(192,218)" stroke="#1B2B5E" stroke-width="1.8" opacity="0.16">
      <path d="M7 18 C3 18 2 13 4 11 C3 6 10 4 13 8 C15 5 20 5 21 9 C25 9 25 14 22 15"/>
      <polyline points="13,22 13,14 10,17 16,17 13,14"/>
    </g>
  </g>
</svg>
